<svg width="164" height="38" viewBox="0 0 164 38" fill="none" xmlns="http://www.w3.org/2000/svg">
<g filter="url(#filter0_dd_2_13)">
<path d="M27 2.1H11C6.63696 2.1 3.10001 5.63695 3.10001 10V26C3.10001 30.363 6.63696 33.9 11 33.9H27C31.3631 33.9 34.9 30.363 34.9 26V10C34.9 5.63695 31.3631 2.1 27 2.1Z" fill="white"/>
<path d="M27 2.1H11C6.63696 2.1 3.10001 5.63695 3.10001 10V26C3.10001 30.363 6.63696 33.9 11 33.9H27C31.3631 33.9 34.9 30.363 34.9 26V10C34.9 5.63695 31.3631 2.1 27 2.1Z" fill="url(#paint0_linear_2_13)"/>
<path d="M27 2.1H11C6.63696 2.1 3.10001 5.63695 3.10001 10V26C3.10001 30.363 6.63696 33.9 11 33.9H27C31.3631 33.9 34.9 30.363 34.9 26V10C34.9 5.63695 31.3631 2.1 27 2.1Z" stroke="#D0D5DD" stroke-width="0.2"/>
<path d="M18.3546 13.1827C22.7105 11.4503 27.4742 12.8184 29.6373 14.9132C30.106 15.3671 30.5041 15.8275 30.845 16.2851C31.0394 15.2107 31.0552 14.1405 30.8681 13.1055C30.1847 9.32646 26.6195 7.18558 23.4233 8.29146C20.2415 9.39237 19.0005 11.5321 19.0005 11.5321C19.0005 11.5321 17.7595 9.39237 14.5777 8.29146C11.3812 7.18558 7.81603 9.32669 7.1328 13.1055C6.62842 15.8944 7.58356 18.9391 9.61033 21.6298C10.0372 21.7732 10.4847 21.8809 10.9586 21.943C13.7978 22.3163 14.8184 21.557 16.0178 21.0486C16.8142 20.7112 17.4134 21.0942 17.3843 21.3626C17.3392 21.7786 15.7693 22.4895 16.106 22.6388C17.4351 23.2284 19.0718 23.2334 20.3053 22.18C21.838 20.8712 22.4114 21.7658 22.4114 21.7658C22.4114 21.7658 21.6502 23.7076 19.3581 24.6717C17.4457 25.4761 15.4419 25.6743 13.6107 25.4683C15.19 26.5846 17.0035 27.5204 19.0005 28.1882C24.7099 26.2784 28.9276 22.1871 30.4145 17.9096C29.4072 16.9157 28.1716 16.2995 26.6988 16.0763C23.8674 15.647 22.8322 16.3862 21.6228 16.8708C20.8198 17.1926 20.2285 16.7978 20.263 16.5299C20.3161 16.1148 21.8999 15.4351 21.5661 15.279C20.249 14.6633 18.6125 14.626 17.3585 15.6548C15.8003 16.9332 15.2446 16.0274 15.2446 16.0274C15.2446 16.0274 16.0438 14.1015 18.3546 13.1827ZM17.2709 18.5051H18.3709V17.4052H19.6296V18.5051H20.7296V19.7639H19.6296V20.8638H18.3709V19.7639H17.2709V18.5051Z" fill="url(#paint1_linear_2_13)"/>
<path d="M17.2709 18.5052H18.3709V17.4052H19.6296V18.5052H20.7295V19.7639H19.6378C21.2597 20.5834 24.2383 21.8027 27.8177 22.3451C28.9956 20.9517 29.8813 19.4428 30.4143 17.9096C29.4069 16.9157 28.1713 16.2996 26.6986 16.0763C23.8672 15.647 22.8319 16.3863 21.6226 16.8708C20.8196 17.1926 20.2282 16.7978 20.2627 16.5299C20.3159 16.1148 21.8997 15.4351 21.5659 15.279C20.2488 14.6633 18.6123 14.626 17.3583 15.6548C15.8 16.9332 15.2443 16.0274 15.2443 16.0274C15.2443 16.0274 16.0438 14.1013 18.3543 13.1823C22.7102 11.4499 27.4739 12.818 29.637 14.9128C30.1057 15.3666 30.5038 15.8271 30.8447 16.2847C31.0392 15.2102 31.055 14.14 30.8679 13.105C30.1844 9.326 26.6192 7.18512 23.423 8.291C20.2412 9.39191 19.0002 11.5316 19.0002 11.5316C19.0002 11.5316 17.7592 9.39191 14.5774 8.291C12.7519 7.65927 10.8067 8.0883 9.34619 9.27521C10.0323 10.7442 10.836 12.1168 13.1254 14.8773C14.9868 17.1222 17.2709 18.5052 17.2709 18.5052Z" fill="url(#paint2_linear_2_13)"/>
<path opacity="0.31" d="M27.277 9.64942C24.2712 8.13932 21.169 10.489 20.1851 11.7298C21.882 11.3724 23.3668 11.189 25.2457 11.5838C28.0252 12.1678 29.0654 13.1714 30.3064 14.6541C30.0871 11.9068 28.3519 10.1895 27.277 9.64942Z" fill="url(#paint3_linear_2_13)"/>
</g>
<path d="M49.7504 27.2575C48.324 27.2575 47.0929 26.9763 46.0572 26.4141C45.0273 25.8459 44.2343 25.038 43.6779 23.9904C43.1275 22.9369 42.8523 21.6851 42.8523 20.2351C42.8523 18.8265 43.1304 17.5954 43.6868 16.5419C44.2431 15.4825 45.0273 14.6598 46.0394 14.0739C47.0515 13.482 48.2441 13.1861 49.6172 13.1861C50.5878 13.1861 51.4756 13.337 52.2805 13.6388C53.0855 13.9407 53.7809 14.3875 54.3668 14.9794C54.9528 15.5713 55.4085 16.3022 55.734 17.1722C56.0595 18.0363 56.2223 19.0277 56.2223 20.1463V21.2294H44.3704V18.7081H52.1829C52.177 18.2464 52.0675 17.8351 51.8544 17.4741C51.6413 17.113 51.3484 16.8319 50.9755 16.6307C50.6085 16.4235 50.1854 16.32 49.706 16.32C49.2206 16.32 48.7856 16.4295 48.4009 16.6484C48.0162 16.8615 47.7114 17.1545 47.4865 17.5273C47.2616 17.8943 47.1432 18.3116 47.1314 18.7791V21.3448C47.1314 21.9012 47.2409 22.3894 47.4599 22.8097C47.6789 23.224 47.9896 23.5465 48.392 23.7773C48.7945 24.0082 49.2739 24.1236 49.8303 24.1236C50.215 24.1236 50.5642 24.0703 50.8778 23.9638C51.1915 23.8572 51.4608 23.7004 51.6857 23.4933C51.9106 23.2861 52.0793 23.0316 52.1918 22.7298L56.1779 22.8452C56.0122 23.7389 55.6482 24.5172 55.0859 25.18C54.5296 25.837 53.7987 26.349 52.8931 26.7159C51.9876 27.0769 50.94 27.2575 49.7504 27.2575ZM76.4571 27V13.3636H80.7984V27H76.4571ZM78.6322 11.7745C78.0226 11.7745 77.4988 11.5733 77.0608 11.1708C76.6228 10.7624 76.4039 10.2712 76.4039 9.69709C76.4039 9.12891 76.6228 8.64358 77.0608 8.24112C77.4988 7.83274 78.0226 7.62855 78.6322 7.62855C79.2477 7.62855 79.7715 7.83274 80.2036 8.24112C80.6415 8.64358 80.8605 9.12891 80.8605 9.69709C80.8605 10.2712 80.6415 10.7624 80.2036 11.1708C79.7715 11.5733 79.2477 11.7745 78.6322 11.7745ZM91.2587 13.3636V16.5597H82.6561V13.3636H91.2587ZM84.4583 10.0966H88.7995V22.712C88.7995 22.9783 88.841 23.1944 88.9238 23.3601C89.0126 23.5199 89.1399 23.6353 89.3056 23.7063C89.4713 23.7714 89.6696 23.804 89.9004 23.804C90.0661 23.804 90.2407 23.7892 90.4242 23.7596C90.6136 23.7241 90.7556 23.6945 90.8503 23.6708L91.5073 26.8047C91.3001 26.8639 91.0072 26.9379 90.6284 27.0266C90.2555 27.1154 89.8087 27.1716 89.2878 27.1953C88.2698 27.2427 87.3968 27.1243 86.6689 26.8402C85.9468 26.5502 85.3934 26.1004 85.0087 25.4908C84.6299 24.8812 84.4464 24.1147 84.4583 23.1914V10.0966ZM97.3178 27.2308C96.4478 27.2308 95.6754 27.0858 95.0007 26.7958C94.3319 26.4999 93.8022 26.056 93.4116 25.4641C93.0269 24.8664 92.8345 24.1177 92.8345 23.218C92.8345 22.4605 92.9677 21.8213 93.234 21.3004C93.5004 20.7796 93.8673 20.3564 94.3349 20.0309C94.8024 19.7054 95.341 19.4598 95.9506 19.294C96.5603 19.1224 97.2113 19.007 97.9038 18.9478C98.6791 18.8768 99.3035 18.8028 99.777 18.7259C100.25 18.643 100.594 18.5276 100.807 18.3796C101.026 18.2257 101.135 18.0097 101.135 17.7315V17.6871C101.135 17.2314 100.978 16.8793 100.665 16.6307C100.351 16.3821 99.9279 16.2578 99.3952 16.2578C98.8211 16.2578 98.3595 16.3821 98.0103 16.6307C97.6611 16.8793 97.4392 17.2225 97.3445 17.6605L93.3406 17.5185C93.4589 16.6899 93.7637 15.95 94.255 15.299C94.7521 14.642 95.4328 14.1271 96.2969 13.7543C97.1669 13.3755 98.2115 13.1861 99.4308 13.1861C100.301 13.1861 101.103 13.2897 101.837 13.4968C102.571 13.698 103.21 13.994 103.754 14.3846C104.299 14.7693 104.719 15.2428 105.015 15.805C105.317 16.3673 105.468 17.0095 105.468 17.7315V27H101.384V25.1001H101.277C101.035 25.5618 100.724 25.9524 100.345 26.272C99.9723 26.5916 99.5314 26.8313 99.0224 26.9911C98.5193 27.1509 97.9511 27.2308 97.3178 27.2308ZM98.6584 24.3899C99.1259 24.3899 99.5462 24.2952 99.919 24.1058C100.298 23.9164 100.6 23.656 100.825 23.3246C101.049 22.9872 101.162 22.5966 101.162 22.1527V20.8565C101.038 20.9216 100.887 20.9808 100.709 21.0341C100.538 21.0874 100.348 21.1377 100.141 21.185C99.9338 21.2324 99.7208 21.2738 99.5018 21.3093C99.2828 21.3448 99.0727 21.3774 98.8714 21.407C98.4631 21.4721 98.1139 21.5727 97.8239 21.7088C97.5398 21.8449 97.3208 22.0225 97.1669 22.2415C97.0189 22.4545 96.945 22.709 96.945 23.005C96.945 23.4548 97.1048 23.7981 97.4244 24.0348C97.7499 24.2715 98.1612 24.3899 98.6584 24.3899ZM112.463 8.81818V27H108.122V8.81818H112.463ZM115.227 27V13.3636H119.568V27H115.227ZM117.402 11.7745C116.792 11.7745 116.268 11.5733 115.83 11.1708C115.392 10.7624 115.173 10.2712 115.173 9.69709C115.173 9.12891 115.392 8.64358 115.83 8.24112C116.268 7.83274 116.792 7.62855 117.402 7.62855C118.017 7.62855 118.541 7.83274 118.973 8.24112C119.411 8.64358 119.63 9.12891 119.63 9.69709C119.63 10.2712 119.411 10.7624 118.973 11.1708C118.541 11.5733 118.017 11.7745 117.402 11.7745ZM134.236 17.5273L130.25 17.6339C130.209 17.3498 130.096 17.0982 129.913 16.8793C129.729 16.6544 129.49 16.4798 129.194 16.3555C128.904 16.2253 128.566 16.1602 128.182 16.1602C127.679 16.1602 127.249 16.2608 126.894 16.462C126.545 16.6632 126.374 16.9355 126.379 17.2788C126.374 17.5451 126.48 17.7759 126.699 17.9712C126.924 18.1665 127.323 18.3234 127.898 18.4418L130.525 18.9389C131.887 19.1993 132.899 19.6314 133.562 20.2351C134.23 20.8388 134.568 21.6378 134.574 22.6321C134.568 23.5672 134.29 24.381 133.739 25.0735C133.195 25.766 132.449 26.3046 131.502 26.6893C130.555 27.0681 129.472 27.2575 128.253 27.2575C126.305 27.2575 124.77 26.858 123.645 26.0589C122.526 25.254 121.887 24.1768 121.727 22.8274L126.015 22.7209C126.11 23.218 126.356 23.5968 126.752 23.8572C127.149 24.1177 127.655 24.2479 128.27 24.2479C128.827 24.2479 129.28 24.1443 129.629 23.9371C129.978 23.73 130.155 23.4548 130.161 23.1115C130.155 22.8037 130.019 22.5581 129.753 22.3746C129.487 22.1853 129.069 22.0373 128.501 21.9308L126.122 21.478C124.755 21.2294 123.737 20.7707 123.068 20.1019C122.399 19.4272 122.068 18.569 122.074 17.5273C122.068 16.6159 122.31 15.8376 122.802 15.1925C123.293 14.5414 123.991 14.0443 124.897 13.701C125.802 13.3577 126.871 13.1861 128.102 13.1861C129.948 13.1861 131.404 13.5737 132.47 14.3491C133.535 15.1185 134.124 16.1779 134.236 17.5273Z" fill="white"/>
<path d="M61.2982 8.81818L65.3643 22.1349H65.5152L69.5812 8.81818H74.4996L68.365 27H62.5145L56.3799 8.81818H61.2982Z" fill="#D13838"/>
<defs>
<filter id="filter0_dd_2_13" x="0" y="0" width="38" height="38" filterUnits="userSpaceOnUse" color-interpolation-filters="sRGB">
<feFlood flood-opacity="0" result="BackgroundImageFix"/>
<feColorMatrix in="SourceAlpha" type="matrix" values="0 0 0 0 0 0 0 0 0 0 0 0 0 0 0 0 0 0 127 0" result="hardAlpha"/>
<feOffset dy="1"/>
<feGaussianBlur stdDeviation="1"/>
<feColorMatrix type="matrix" values="0 0 0 0 0.0627451 0 0 0 0 0.0941176 0 0 0 0 0.156863 0 0 0 0.06 0"/>
<feBlend mode="normal" in2="BackgroundImageFix" result="effect1_dropShadow_2_13"/>
<feColorMatrix in="SourceAlpha" type="matrix" values="0 0 0 0 0 0 0 0 0 0 0 0 0 0 0 0 0 0 127 0" result="hardAlpha"/>
<feOffset dy="1"/>
<feGaussianBlur stdDeviation="1.5"/>
<feColorMatrix type="matrix" values="0 0 0 0 0.0627451 0 0 0 0 0.0941176 0 0 0 0 0.156863 0 0 0 0.1 0"/>
<feBlend mode="normal" in2="effect1_dropShadow_2_13" result="effect2_dropShadow_2_13"/>
<feBlend mode="normal" in="SourceGraphic" in2="effect2_dropShadow_2_13" result="shape"/>
</filter>
<linearGradient id="paint0_linear_2_13" x1="19" y1="2" x2="19" y2="34" gradientUnits="userSpaceOnUse">
<stop stop-color="white"/>
<stop offset="1" stop-color="#D0D5DD"/>
</linearGradient>
<linearGradient id="paint1_linear_2_13" x1="10.1989" y1="24.2137" x2="27.8347" y2="6.57788" gradientUnits="userSpaceOnUse">
<stop stop-color="#0076C1"/>
<stop offset="0.0737" stop-color="#0B82C6"/>
<stop offset="0.2766" stop-color="#269ED3"/>
<stop offset="0.4546" stop-color="#36AFDA"/>
<stop offset="0.587" stop-color="#3CB5DD"/>
</linearGradient>
<linearGradient id="paint2_linear_2_13" x1="10.1388" y1="24.2537" x2="27.8274" y2="6.56509" gradientUnits="userSpaceOnUse">
<stop stop-color="#00A482"/>
<stop offset="1" stop-color="#79DD83"/>
</linearGradient>
<linearGradient id="paint3_linear_2_13" x1="24.8608" y1="13.5072" x2="28.5288" y2="10.1131" gradientUnits="userSpaceOnUse">
<stop stop-color="#00A482"/>
<stop offset="1" stop-color="#79DD83"/>
</linearGradient>
</defs>
</svg>
